# xmcd CD database file
#
# Track frame offsets:
#	150
#	9242
#	12212
#	15556
#	18827
#	23150
#	26646
#	30526
#	33953
#	37508
#	41547
#	44826
#	48728
#	52050
#	56913
#	61691
#	66494
#	71408
#	76358
#	81183
#	85865
#	90581
#	95634
#	101582
#	105567
#	108860
#	112567
#	115913
#	119286
#	123743
#	127663
#	137025
#
# Disc length: 1919 seconds
#
# Revision: 0
# Processed by: cddbd v1.5.2PL0 Copyright (c) Steve Scherf et al.
# Submitted via: CDex 1.51
#
DISCID=94077d20
DTITLE=Jim Ferguson - All Blues Soloing For Jazz Guitar
DYEAR=1999
DGENRE=Jazz
TTITLE0=Intro - C Major Bebop
TTITLE1=F Major Bounce
TTITLE2=C Swing
TTITLE3=Two For Herb
TTITLE4=Coastal Funk
TTITLE5=Lookin' Wes
TTITLE6=Blues For KWEG
TTITLE7=Pass And Present
TTITLE8=Connections
TTITLE9=Blues Force
TTITLE10=All Pent Up
TTITLE11=Blues Transit
TTITLE12=Blues Moves
TTITLE13=Licks 01-10
TTITLE14=Licks 11-20
TTITLE15=Licks 21-30
TTITLE16=Licks 31-40
TTITLE17=Licks 41-50
TTITLE18=Licks 51-60
TTITLE19=Licks 61-70
TTITLE20=Licks 71-80
TTITLE21=Licks 81-90
TTITLE22=Licks 91-102
TTITLE23=Add It Up
TTITLE24=Blues Shifts
TTITLE25=Blues Mix
TTITLE26=Blues Sevenths
TTITLE27=Super Blues
TTITLE28=Wholly Diminished
TTITLE29=Lydia's Lament
TTITLE30=Lines For Lenny
TTITLE31=Double Down
EXTD=YEAR: 1999
EXTT0=
EXTT1=
EXTT2=
EXTT3=
EXTT4=
EXTT5=
EXTT6=
EXTT7=
EXTT8=
EXTT9=
EXTT10=
EXTT11=
EXTT12=
EXTT13=
EXTT14=
EXTT15=
EXTT16=
EXTT17=
EXTT18=
EXTT19=
EXTT20=
EXTT21=
EXTT22=
EXTT23=
EXTT24=
EXTT25=
EXTT26=
EXTT27=
EXTT28=
EXTT29=
EXTT30=
EXTT31=
PLAYORDER=
